<svg width="720" height="480" viewBox="0 0 720 480" fill="none" xmlns="http://www.w3.org/2000/svg">
  <rect width="720" height="480" rx="32" fill="#1A1714"/>
  <rect x="28" y="28" width="664" height="424" rx="28" fill="url(#paint0_linear)"/>
  <circle cx="588" cy="132" r="74" fill="#FFD7B4" fill-opacity="0.18"/>
  <circle cx="150" cy="358" r="96" fill="#F58A4B" fill-opacity="0.16"/>
  <rect x="84" y="90" width="272" height="176" rx="28" fill="#FFF6EC" fill-opacity="0.9"/>
  <rect x="116" y="126" width="156" height="18" rx="9" fill="#E97A3B"/>
  <rect x="116" y="160" width="208" height="14" rx="7" fill="#D9C8B8"/>
  <rect x="116" y="186" width="178" height="14" rx="7" fill="#D9C8B8"/>
  <path d="M152 266L194 236H298C313.464 236 326 248.536 326 264V294C326 309.464 313.464 322 298 322H180C164.536 322 152 309.464 152 294V266Z" fill="#1F6A4D"/>
  <rect x="390" y="170" width="212" height="138" rx="28" fill="#1C1A18" fill-opacity="0.76" stroke="#FFF1E2" stroke-opacity="0.16"/>
  <rect x="424" y="204" width="114" height="16" rx="8" fill="#FFF2E4"/>
  <rect x="424" y="236" width="142" height="12" rx="6" fill="#C9B19A"/>
  <rect x="424" y="259" width="120" height="12" rx="6" fill="#C9B19A"/>
  <text x="84" y="386" fill="#FFF6EC" font-family="Arial, sans-serif" font-size="54" font-weight="700">CHATMATE</text>
  <text x="86" y="420" fill="#FFD7B4" font-family="Arial, sans-serif" font-size="20" letter-spacing="4">CONVERSATION MODE</text>
  <defs>
    <linearGradient id="paint0_linear" x1="72" y1="56" x2="632" y2="424" gradientUnits="userSpaceOnUse">
      <stop stop-color="#2A241F"/>
      <stop offset="1" stop-color="#453326"/>
    </linearGradient>
  </defs>
</svg>
