<svg width="720" height="480" viewBox="0 0 720 480" fill="none" xmlns="http://www.w3.org/2000/svg">
  <rect width="720" height="480" rx="32" fill="#111714"/>
  <rect x="26" y="26" width="668" height="428" rx="28" fill="url(#paint0_linear)"/>
  <circle cx="116" cy="104" r="82" fill="#FFF2DF" fill-opacity="0.08"/>
  <circle cx="586" cy="354" r="102" fill="#F58A4B" fill-opacity="0.16"/>
  <rect x="80" y="88" width="164" height="164" rx="28" fill="#FFF5EA" fill-opacity="0.92"/>
  <circle cx="162" cy="170" r="38" fill="#F58A4B"/>
  <path d="M160 122L171 157H208L178 179L189 214L160 193L131 214L142 179L112 157H149L160 122Z" fill="#1E1A17"/>
  <rect x="308" y="98" width="320" height="46" rx="23" fill="#1E1A17" fill-opacity="0.72" stroke="#FFF2DF" stroke-opacity="0.12"/>
  <rect x="332" y="114" width="118" height="14" rx="7" fill="#FFF2DF"/>
  <rect x="80" y="292" width="548" height="76" rx="24" fill="#1A1714" fill-opacity="0.7" stroke="#FFF2DF" stroke-opacity="0.14"/>
  <rect x="106" y="316" width="96" height="28" rx="14" fill="#1F6A4D"/>
  <rect x="218" y="316" width="96" height="28" rx="14" fill="#F58A4B"/>
  <rect x="330" y="316" width="96" height="28" rx="14" fill="#FFF2DF"/>
  <rect x="442" y="316" width="96" height="28" rx="14" fill="#F2C94C"/>
  <text x="80" y="414" fill="#FFF6EC" font-family="Arial, sans-serif" font-size="54" font-weight="700">WORDSHOOTER</text>
  <text x="82" y="446" fill="#CFEAD8" font-family="Arial, sans-serif" font-size="20" letter-spacing="4">REFLEX MODE</text>
  <defs>
    <linearGradient id="paint0_linear" x1="56" y1="48" x2="654" y2="436" gradientUnits="userSpaceOnUse">
      <stop stop-color="#18231D"/>
      <stop offset="1" stop-color="#22372B"/>
    </linearGradient>
  </defs>
</svg>
